<mxfile host="app.diagrams.net" modified="2023-12-06T07:06:11.485Z" agent="Mozilla/5.0 (Macintosh; Intel Mac OS X 10_15_7) AppleWebKit/537.36 (KHTML, like Gecko) Chrome/119.0.0.0 Safari/537.36" etag="X150oY0WYfrHW1DGaifD" version="22.1.5" type="device">
  <diagram name="Page-1" id="2YBvvXClWsGukQMizWep">
    <mxGraphModel dx="1224" dy="775" grid="1" gridSize="10" guides="1" tooltips="1" connect="1" arrows="1" fold="1" page="1" pageScale="1" pageWidth="850" pageHeight="1100" math="0" shadow="0">
      <root>
        <mxCell id="0" />
        <mxCell id="1" parent="0" />
        <mxCell id="aM9ryv3xv72pqoxQDRHE-1" value="End User" style="shape=umlLifeline;perimeter=lifelinePerimeter;whiteSpace=wrap;html=1;container=0;dropTarget=0;collapsible=0;recursiveResize=0;outlineConnect=0;portConstraint=eastwest;newEdgeStyle={&quot;edgeStyle&quot;:&quot;elbowEdgeStyle&quot;,&quot;elbow&quot;:&quot;vertical&quot;,&quot;curved&quot;:0,&quot;rounded&quot;:0};strokeColor=#000000;" parent="1" vertex="1">
          <mxGeometry x="40" y="40" width="100" height="320" as="geometry" />
        </mxCell>
        <mxCell id="aM9ryv3xv72pqoxQDRHE-3" value="RealCheck" style="html=1;verticalAlign=bottom;startArrow=oval;endArrow=block;startSize=8;edgeStyle=elbowEdgeStyle;elbow=vertical;curved=0;rounded=0;strokeColor=#000000;" parent="aM9ryv3xv72pqoxQDRHE-1" edge="1">
          <mxGeometry relative="1" as="geometry">
            <mxPoint x="-15" y="70" as="sourcePoint" />
            <mxPoint x="45" y="70" as="targetPoint" />
          </mxGeometry>
        </mxCell>
        <mxCell id="aM9ryv3xv72pqoxQDRHE-5" value="Auth Dash" style="shape=umlLifeline;perimeter=lifelinePerimeter;whiteSpace=wrap;html=1;container=0;dropTarget=0;collapsible=0;recursiveResize=0;outlineConnect=0;portConstraint=eastwest;newEdgeStyle={&quot;edgeStyle&quot;:&quot;elbowEdgeStyle&quot;,&quot;elbow&quot;:&quot;vertical&quot;,&quot;curved&quot;:0,&quot;rounded&quot;:0};strokeColor=#000000;" parent="1" vertex="1">
          <mxGeometry x="200" y="40" width="100" height="320" as="geometry" />
        </mxCell>
        <mxCell id="Bb0cgkO7ZcS4CcjjMUlO-19" value="" style="html=1;points=[];perimeter=orthogonalPerimeter;outlineConnect=0;targetShapes=umlLifeline;portConstraint=eastwest;newEdgeStyle={&quot;edgeStyle&quot;:&quot;elbowEdgeStyle&quot;,&quot;elbow&quot;:&quot;vertical&quot;,&quot;curved&quot;:0,&quot;rounded&quot;:0};strokeColor=#000000;" vertex="1" parent="aM9ryv3xv72pqoxQDRHE-5">
          <mxGeometry x="45" y="80" width="10" height="30" as="geometry" />
        </mxCell>
        <mxCell id="aM9ryv3xv72pqoxQDRHE-7" value="" style="html=1;verticalAlign=bottom;endArrow=block;edgeStyle=elbowEdgeStyle;elbow=vertical;curved=0;rounded=0;strokeColor=#000000;" parent="1" target="Bb0cgkO7ZcS4CcjjMUlO-19" edge="1">
          <mxGeometry relative="1" as="geometry">
            <mxPoint x="95" y="120" as="sourcePoint" />
            <Array as="points">
              <mxPoint x="180" y="120" />
            </Array>
            <mxPoint x="245" y="120" as="targetPoint" />
          </mxGeometry>
        </mxCell>
        <mxCell id="Bb0cgkO7ZcS4CcjjMUlO-21" value="Login / SignUp" style="edgeLabel;html=1;align=center;verticalAlign=middle;resizable=0;points=[];strokeColor=#000000;" vertex="1" connectable="0" parent="aM9ryv3xv72pqoxQDRHE-7">
          <mxGeometry x="0.2533" y="-2" relative="1" as="geometry">
            <mxPoint x="-19" y="-2" as="offset" />
          </mxGeometry>
        </mxCell>
        <mxCell id="aM9ryv3xv72pqoxQDRHE-8" value="" style="html=1;verticalAlign=bottom;endArrow=open;dashed=1;endSize=8;edgeStyle=elbowEdgeStyle;elbow=vertical;curved=0;rounded=0;strokeColor=#000000;" parent="1" edge="1">
          <mxGeometry relative="1" as="geometry">
            <mxPoint x="89.5" y="220" as="targetPoint" />
            <Array as="points">
              <mxPoint x="690" y="220" />
            </Array>
            <mxPoint x="424.75" y="220" as="sourcePoint" />
          </mxGeometry>
        </mxCell>
        <mxCell id="Bb0cgkO7ZcS4CcjjMUlO-30" value="Success / Failure" style="edgeLabel;html=1;align=center;verticalAlign=middle;resizable=0;points=[];strokeColor=#000000;" vertex="1" connectable="0" parent="aM9ryv3xv72pqoxQDRHE-8">
          <mxGeometry x="0.2855" y="-2" relative="1" as="geometry">
            <mxPoint x="-24" y="2" as="offset" />
          </mxGeometry>
        </mxCell>
        <mxCell id="Bb0cgkO7ZcS4CcjjMUlO-1" value="Manufacturer" style="shape=umlLifeline;perimeter=lifelinePerimeter;whiteSpace=wrap;html=1;container=0;dropTarget=0;collapsible=0;recursiveResize=0;outlineConnect=0;portConstraint=eastwest;newEdgeStyle={&quot;edgeStyle&quot;:&quot;elbowEdgeStyle&quot;,&quot;elbow&quot;:&quot;vertical&quot;,&quot;curved&quot;:0,&quot;rounded&quot;:0};strokeColor=#000000;" vertex="1" parent="1">
          <mxGeometry x="350" y="40" width="100" height="320" as="geometry" />
        </mxCell>
        <mxCell id="Bb0cgkO7ZcS4CcjjMUlO-4" value="" style="html=1;points=[];perimeter=orthogonalPerimeter;outlineConnect=0;targetShapes=umlLifeline;portConstraint=eastwest;newEdgeStyle={&quot;edgeStyle&quot;:&quot;elbowEdgeStyle&quot;,&quot;elbow&quot;:&quot;vertical&quot;,&quot;curved&quot;:0,&quot;rounded&quot;:0};strokeColor=#000000;" vertex="1" parent="Bb0cgkO7ZcS4CcjjMUlO-1">
          <mxGeometry x="45" y="140" width="10" height="20" as="geometry" />
        </mxCell>
        <mxCell id="Bb0cgkO7ZcS4CcjjMUlO-3" value="Supplier" style="shape=umlLifeline;perimeter=lifelinePerimeter;whiteSpace=wrap;html=1;container=0;dropTarget=0;collapsible=0;recursiveResize=0;outlineConnect=0;portConstraint=eastwest;newEdgeStyle={&quot;edgeStyle&quot;:&quot;elbowEdgeStyle&quot;,&quot;elbow&quot;:&quot;vertical&quot;,&quot;curved&quot;:0,&quot;rounded&quot;:0};strokeColor=#000000;" vertex="1" parent="1">
          <mxGeometry x="495" y="40" width="100" height="320" as="geometry" />
        </mxCell>
        <mxCell id="Bb0cgkO7ZcS4CcjjMUlO-10" value="" style="html=1;points=[];perimeter=orthogonalPerimeter;outlineConnect=0;targetShapes=umlLifeline;portConstraint=eastwest;newEdgeStyle={&quot;edgeStyle&quot;:&quot;elbowEdgeStyle&quot;,&quot;elbow&quot;:&quot;vertical&quot;,&quot;curved&quot;:0,&quot;rounded&quot;:0};strokeColor=#000000;" vertex="1" parent="Bb0cgkO7ZcS4CcjjMUlO-3">
          <mxGeometry x="45" y="200" width="10" height="20" as="geometry" />
        </mxCell>
        <mxCell id="Bb0cgkO7ZcS4CcjjMUlO-23" value="" style="html=1;verticalAlign=bottom;endArrow=open;dashed=1;endSize=8;edgeStyle=elbowEdgeStyle;elbow=vertical;curved=0;rounded=0;strokeColor=#000000;" edge="1" parent="1" target="Bb0cgkO7ZcS4CcjjMUlO-3">
          <mxGeometry relative="1" as="geometry">
            <mxPoint x="540" y="150" as="targetPoint" />
            <Array as="points">
              <mxPoint x="342.5" y="150" />
            </Array>
            <mxPoint x="262.5" y="150" as="sourcePoint" />
          </mxGeometry>
        </mxCell>
        <mxCell id="Bb0cgkO7ZcS4CcjjMUlO-26" value="Role: Supplier" style="edgeLabel;html=1;align=center;verticalAlign=middle;resizable=0;points=[];strokeColor=#000000;" vertex="1" connectable="0" parent="Bb0cgkO7ZcS4CcjjMUlO-23">
          <mxGeometry x="0.3779" y="-1" relative="1" as="geometry">
            <mxPoint as="offset" />
          </mxGeometry>
        </mxCell>
        <mxCell id="Bb0cgkO7ZcS4CcjjMUlO-24" value="" style="html=1;verticalAlign=bottom;endArrow=open;dashed=1;endSize=8;edgeStyle=elbowEdgeStyle;elbow=vertical;curved=0;rounded=0;strokeColor=#000000;" edge="1" parent="1" source="aM9ryv3xv72pqoxQDRHE-5">
          <mxGeometry relative="1" as="geometry">
            <mxPoint x="400" y="150" as="targetPoint" />
            <Array as="points">
              <mxPoint x="352.5" y="150" />
            </Array>
            <mxPoint x="272.5" y="150" as="sourcePoint" />
          </mxGeometry>
        </mxCell>
        <mxCell id="Bb0cgkO7ZcS4CcjjMUlO-25" value="Role: Manufacturer" style="edgeLabel;html=1;align=center;verticalAlign=middle;resizable=0;points=[];strokeColor=#000000;" vertex="1" connectable="0" parent="Bb0cgkO7ZcS4CcjjMUlO-24">
          <mxGeometry x="0.0774" relative="1" as="geometry">
            <mxPoint as="offset" />
          </mxGeometry>
        </mxCell>
        <mxCell id="Bb0cgkO7ZcS4CcjjMUlO-27" value="" style="html=1;verticalAlign=bottom;endArrow=block;edgeStyle=elbowEdgeStyle;elbow=vertical;curved=0;rounded=0;strokeColor=#000000;" edge="1" parent="1">
          <mxGeometry relative="1" as="geometry">
            <mxPoint x="90.25" y="180" as="sourcePoint" />
            <Array as="points">
              <mxPoint x="175.25" y="180" />
            </Array>
            <mxPoint x="400" y="180" as="targetPoint" />
          </mxGeometry>
        </mxCell>
        <mxCell id="Bb0cgkO7ZcS4CcjjMUlO-28" value="Product Create / Alter / Transfer" style="edgeLabel;html=1;align=center;verticalAlign=middle;resizable=0;points=[];strokeColor=#000000;" vertex="1" connectable="0" parent="Bb0cgkO7ZcS4CcjjMUlO-27">
          <mxGeometry x="0.2533" y="-2" relative="1" as="geometry">
            <mxPoint x="-19" y="-2" as="offset" />
          </mxGeometry>
        </mxCell>
        <mxCell id="Bb0cgkO7ZcS4CcjjMUlO-29" value="Failure" style="html=1;verticalAlign=bottom;endArrow=open;dashed=1;endSize=8;edgeStyle=elbowEdgeStyle;elbow=vertical;curved=0;rounded=0;strokeColor=#000000;" edge="1" parent="1">
          <mxGeometry relative="1" as="geometry">
            <mxPoint x="90" y="150" as="targetPoint" />
            <Array as="points">
              <mxPoint x="185" y="150" />
            </Array>
            <mxPoint x="240" y="150" as="sourcePoint" />
          </mxGeometry>
        </mxCell>
        <mxCell id="Bb0cgkO7ZcS4CcjjMUlO-31" value="" style="html=1;verticalAlign=bottom;endArrow=block;edgeStyle=elbowEdgeStyle;elbow=vertical;curved=0;rounded=0;strokeColor=#000000;" edge="1" parent="1" target="Bb0cgkO7ZcS4CcjjMUlO-3">
          <mxGeometry relative="1" as="geometry">
            <mxPoint x="90.25" y="240" as="sourcePoint" />
            <Array as="points">
              <mxPoint x="175.25" y="240" />
            </Array>
            <mxPoint x="409.75" y="240" as="targetPoint" />
          </mxGeometry>
        </mxCell>
        <mxCell id="Bb0cgkO7ZcS4CcjjMUlO-32" value="Product Transfer" style="edgeLabel;html=1;align=center;verticalAlign=middle;resizable=0;points=[];strokeColor=#000000;" vertex="1" connectable="0" parent="Bb0cgkO7ZcS4CcjjMUlO-31">
          <mxGeometry x="0.2533" y="-2" relative="1" as="geometry">
            <mxPoint x="-19" y="-2" as="offset" />
          </mxGeometry>
        </mxCell>
        <mxCell id="Bb0cgkO7ZcS4CcjjMUlO-33" value="BlockChain" style="shape=umlLifeline;perimeter=lifelinePerimeter;whiteSpace=wrap;html=1;container=0;dropTarget=0;collapsible=0;recursiveResize=0;outlineConnect=0;portConstraint=eastwest;newEdgeStyle={&quot;edgeStyle&quot;:&quot;elbowEdgeStyle&quot;,&quot;elbow&quot;:&quot;vertical&quot;,&quot;curved&quot;:0,&quot;rounded&quot;:0};strokeColor=#000000;" vertex="1" parent="1">
          <mxGeometry x="640" y="40" width="100" height="320" as="geometry" />
        </mxCell>
        <mxCell id="Bb0cgkO7ZcS4CcjjMUlO-2" value="" style="html=1;points=[];perimeter=orthogonalPerimeter;outlineConnect=0;targetShapes=umlLifeline;portConstraint=eastwest;newEdgeStyle={&quot;edgeStyle&quot;:&quot;elbowEdgeStyle&quot;,&quot;elbow&quot;:&quot;vertical&quot;,&quot;curved&quot;:0,&quot;rounded&quot;:0};strokeColor=#000000;" vertex="1" parent="Bb0cgkO7ZcS4CcjjMUlO-33">
          <mxGeometry x="45" y="160" width="10" height="20" as="geometry" />
        </mxCell>
        <mxCell id="Bb0cgkO7ZcS4CcjjMUlO-11" value="" style="html=1;points=[];perimeter=orthogonalPerimeter;outlineConnect=0;targetShapes=umlLifeline;portConstraint=eastwest;newEdgeStyle={&quot;edgeStyle&quot;:&quot;elbowEdgeStyle&quot;,&quot;elbow&quot;:&quot;vertical&quot;,&quot;curved&quot;:0,&quot;rounded&quot;:0};strokeColor=#000000;" vertex="1" parent="Bb0cgkO7ZcS4CcjjMUlO-33">
          <mxGeometry x="45" y="220" width="10" height="20" as="geometry" />
        </mxCell>
        <mxCell id="Bb0cgkO7ZcS4CcjjMUlO-12" value="" style="html=1;points=[];perimeter=orthogonalPerimeter;outlineConnect=0;targetShapes=umlLifeline;portConstraint=eastwest;newEdgeStyle={&quot;edgeStyle&quot;:&quot;elbowEdgeStyle&quot;,&quot;elbow&quot;:&quot;vertical&quot;,&quot;curved&quot;:0,&quot;rounded&quot;:0};" vertex="1" parent="Bb0cgkO7ZcS4CcjjMUlO-33">
          <mxGeometry x="45" y="270" width="10" height="20" as="geometry" />
        </mxCell>
        <mxCell id="Bb0cgkO7ZcS4CcjjMUlO-34" value="" style="html=1;verticalAlign=bottom;endArrow=block;edgeStyle=elbowEdgeStyle;elbow=vertical;curved=0;rounded=0;strokeColor=#000000;" edge="1" parent="1">
          <mxGeometry relative="1" as="geometry">
            <mxPoint x="400.13" y="200" as="sourcePoint" />
            <Array as="points">
              <mxPoint x="485.13" y="200" />
            </Array>
            <mxPoint x="690" y="200" as="targetPoint" />
          </mxGeometry>
        </mxCell>
        <mxCell id="Bb0cgkO7ZcS4CcjjMUlO-35" value="Product Create / Alter / Transfer" style="edgeLabel;html=1;align=center;verticalAlign=middle;resizable=0;points=[];strokeColor=#000000;" vertex="1" connectable="0" parent="Bb0cgkO7ZcS4CcjjMUlO-34">
          <mxGeometry x="0.2533" y="-2" relative="1" as="geometry">
            <mxPoint x="-19" y="-2" as="offset" />
          </mxGeometry>
        </mxCell>
        <mxCell id="Bb0cgkO7ZcS4CcjjMUlO-42" value="" style="html=1;verticalAlign=bottom;endArrow=block;edgeStyle=elbowEdgeStyle;elbow=vertical;curved=0;rounded=0;strokeColor=#000000;" edge="1" parent="1">
          <mxGeometry relative="1" as="geometry">
            <mxPoint x="550" y="260" as="sourcePoint" />
            <Array as="points">
              <mxPoint x="635" y="260" />
            </Array>
            <mxPoint x="690" y="260" as="targetPoint" />
          </mxGeometry>
        </mxCell>
        <mxCell id="Bb0cgkO7ZcS4CcjjMUlO-43" value="Product Transfer" style="edgeLabel;html=1;align=center;verticalAlign=middle;resizable=0;points=[];strokeColor=#000000;" vertex="1" connectable="0" parent="Bb0cgkO7ZcS4CcjjMUlO-42">
          <mxGeometry x="0.2533" y="-2" relative="1" as="geometry">
            <mxPoint x="-19" y="-2" as="offset" />
          </mxGeometry>
        </mxCell>
        <mxCell id="Bb0cgkO7ZcS4CcjjMUlO-44" value="" style="html=1;verticalAlign=bottom;endArrow=open;dashed=1;endSize=8;edgeStyle=elbowEdgeStyle;elbow=vertical;curved=0;rounded=0;strokeColor=#000000;" edge="1" parent="1">
          <mxGeometry relative="1" as="geometry">
            <mxPoint x="90" y="280" as="targetPoint" />
            <Array as="points">
              <mxPoint x="690" y="280" />
            </Array>
            <mxPoint x="425.25" y="280" as="sourcePoint" />
          </mxGeometry>
        </mxCell>
        <mxCell id="Bb0cgkO7ZcS4CcjjMUlO-45" value="Success / Failure" style="edgeLabel;html=1;align=center;verticalAlign=middle;resizable=0;points=[];strokeColor=#000000;" vertex="1" connectable="0" parent="Bb0cgkO7ZcS4CcjjMUlO-44">
          <mxGeometry x="0.2855" y="-2" relative="1" as="geometry">
            <mxPoint x="-24" y="2" as="offset" />
          </mxGeometry>
        </mxCell>
        <mxCell id="Bb0cgkO7ZcS4CcjjMUlO-46" value="" style="html=1;verticalAlign=bottom;endArrow=block;edgeStyle=elbowEdgeStyle;elbow=vertical;curved=0;rounded=0;strokeColor=#000000;" edge="1" parent="1" source="aM9ryv3xv72pqoxQDRHE-1" target="Bb0cgkO7ZcS4CcjjMUlO-33">
          <mxGeometry relative="1" as="geometry">
            <mxPoint x="100" y="310" as="sourcePoint" />
            <Array as="points">
              <mxPoint x="185" y="310" />
            </Array>
            <mxPoint x="554.75" y="310" as="targetPoint" />
          </mxGeometry>
        </mxCell>
        <mxCell id="Bb0cgkO7ZcS4CcjjMUlO-47" value="Product Info" style="edgeLabel;html=1;align=center;verticalAlign=middle;resizable=0;points=[];strokeColor=#000000;" vertex="1" connectable="0" parent="Bb0cgkO7ZcS4CcjjMUlO-46">
          <mxGeometry x="0.2533" y="-2" relative="1" as="geometry">
            <mxPoint x="-19" y="-2" as="offset" />
          </mxGeometry>
        </mxCell>
        <mxCell id="Bb0cgkO7ZcS4CcjjMUlO-48" value="" style="html=1;verticalAlign=bottom;endArrow=open;dashed=1;endSize=8;edgeStyle=elbowEdgeStyle;elbow=vertical;curved=0;rounded=0;strokeColor=#000000;" edge="1" parent="1">
          <mxGeometry relative="1" as="geometry">
            <mxPoint x="90" y="330" as="targetPoint" />
            <Array as="points">
              <mxPoint x="690" y="330" />
            </Array>
            <mxPoint x="425.25" y="330" as="sourcePoint" />
          </mxGeometry>
        </mxCell>
        <mxCell id="Bb0cgkO7ZcS4CcjjMUlO-49" value="Product ()" style="edgeLabel;html=1;align=center;verticalAlign=middle;resizable=0;points=[];strokeColor=#000000;" vertex="1" connectable="0" parent="Bb0cgkO7ZcS4CcjjMUlO-48">
          <mxGeometry x="0.2855" y="-2" relative="1" as="geometry">
            <mxPoint x="-24" y="2" as="offset" />
          </mxGeometry>
        </mxCell>
      </root>
    </mxGraphModel>
  </diagram>
</mxfile>
